<?xml version="1.0" encoding="UTF-8" standalone="no"?>
<!-- Created with Inkscape (http://www.inkscape.org/) -->

<svg
   width="30mm"
   height="49.999996mm"
   viewBox="0 0 30 49.999996"
   version="1.1"
   id="svg1"
   xml:space="preserve"
   inkscape:version="1.3.2 (091e20ef0f, 2023-11-25)"
   sodipodi:docname="backprint.svg"
   inkscape:export-filename="../graphic6.pdf"
   inkscape:export-xdpi="96"
   inkscape:export-ydpi="96"
   xmlns:inkscape="http://www.inkscape.org/namespaces/inkscape"
   xmlns:sodipodi="http://sodipodi.sourceforge.net/DTD/sodipodi-0.dtd"
   xmlns="http://www.w3.org/2000/svg"
   xmlns:svg="http://www.w3.org/2000/svg"><sodipodi:namedview
     id="namedview1"
     pagecolor="#ffffff"
     bordercolor="#000000"
     borderopacity="0.25"
     inkscape:showpageshadow="2"
     inkscape:pageopacity="0.0"
     inkscape:pagecheckerboard="0"
     inkscape:deskcolor="#d1d1d1"
     inkscape:document-units="mm"
     inkscape:zoom="0.39399457"
     inkscape:cx="399.7517"
     inkscape:cy="586.3025"
     inkscape:window-width="2560"
     inkscape:window-height="1379"
     inkscape:window-x="0"
     inkscape:window-y="30"
     inkscape:window-maximized="1"
     inkscape:current-layer="layer1-3"
     showgrid="false" /><defs
     id="defs1"><rect
       x="216.84602"
       y="353.20709"
       width="512.78119"
       height="219.78326"
       id="rect2" /><rect
       x="216.84602"
       y="353.20709"
       width="512.78119"
       height="219.78326"
       id="rect2-5" /><rect
       x="216.84602"
       y="353.20709"
       width="512.78119"
       height="219.78326"
       id="rect2-6" /><rect
       x="216.84602"
       y="353.20709"
       width="512.78119"
       height="219.78326"
       id="rect2-5-1" /><rect
       x="216.84603"
       y="353.2071"
       width="512.78117"
       height="219.78327"
       id="rect2-50" /><rect
       x="216.84602"
       y="353.20709"
       width="512.78119"
       height="219.78326"
       id="rect2-2" /><rect
       x="216.84602"
       y="353.20709"
       width="512.78119"
       height="219.78326"
       id="rect2-2-7" /><rect
       x="216.84602"
       y="353.20709"
       width="512.78119"
       height="219.78326"
       id="rect2-2-7-0" /><rect
       x="216.84603"
       y="353.2071"
       width="512.78117"
       height="219.78327"
       id="rect349" /><rect
       x="216.84603"
       y="353.2071"
       width="512.78117"
       height="219.78327"
       id="rect2181" /><rect
       x="216.84603"
       y="353.2071"
       width="512.78117"
       height="219.78327"
       id="rect3257" /><rect
       x="216.84603"
       y="353.2071"
       width="512.78117"
       height="219.78327"
       id="rect3325" /><rect
       x="216.84602"
       y="353.20709"
       width="512.78119"
       height="219.78326"
       id="rect2-20" /><rect
       x="216.84602"
       y="353.20709"
       width="512.78119"
       height="219.78326"
       id="rect2-5-1-6" /><rect
       x="216.84602"
       y="353.20709"
       width="512.78119"
       height="219.78326"
       id="rect3325-1" /><rect
       x="216.84602"
       y="353.20709"
       width="512.78119"
       height="219.78326"
       id="rect2-5-5" /><rect
       x="216.84602"
       y="353.20709"
       width="512.78119"
       height="219.78326"
       id="rect2-7" /><rect
       x="216.84602"
       y="353.20709"
       width="512.78119"
       height="219.78326"
       id="rect2-5-1-4" /><rect
       x="216.84602"
       y="353.20709"
       width="512.78119"
       height="219.78326"
       id="rect3325-4" /><rect
       x="216.84602"
       y="353.20709"
       width="512.78119"
       height="219.78326"
       id="rect2-5-3" /><rect
       x="216.84602"
       y="353.20709"
       width="512.78119"
       height="219.78326"
       id="rect2-5-4" /><rect
       x="216.84602"
       y="353.20709"
       width="512.78119"
       height="219.78326"
       id="rect3" /><rect
       x="216.84602"
       y="353.20709"
       width="512.78119"
       height="219.78326"
       id="rect2-5-4-1" /><rect
       x="216.84602"
       y="353.20709"
       width="512.78119"
       height="219.78326"
       id="rect3-7" /><rect
       x="216.84602"
       y="353.20709"
       width="512.78119"
       height="219.78326"
       id="rect2-5-1-1" /><rect
       x="216.84602"
       y="353.20709"
       width="512.78119"
       height="219.78326"
       id="rect3325-5" /><rect
       x="216.84602"
       y="353.20709"
       width="512.78119"
       height="219.78326"
       id="rect2-5-1-5" /><rect
       x="216.84602"
       y="353.20709"
       width="512.78119"
       height="219.78326"
       id="rect3325-2" /><rect
       x="216.84602"
       y="353.20709"
       width="512.78119"
       height="219.78326"
       id="rect3325-3" /><rect
       x="216.84602"
       y="353.20709"
       width="512.78119"
       height="219.78326"
       id="rect3325-27" /><rect
       x="216.84602"
       y="353.20709"
       width="512.78119"
       height="219.78326"
       id="rect2-5-1-2" /></defs><g
     inkscape:label="Layer 1"
     inkscape:groupmode="layer"
     id="layer1"
     transform="translate(-164.04169,-5.2916687)"><rect
       style="opacity:1;fill:#000000;fill-opacity:1;stroke:none;stroke-width:0;stroke-dasharray:none"
       id="rect1"
       width="516.40002"
       height="218.20245"
       x="145.50169"
       y="-11.270591"
       ry="14.336786" /><g
       inkscape:label="Layer 1"
       id="layer1-2"
       transform="matrix(1,0,0,1.0762039,141.08515,-302.09539)"><rect
         style="fill:none;fill-opacity:1;stroke:#f8e45c;stroke-width:3.13118;stroke-linecap:round;stroke-linejoin:round;stroke-dasharray:none"
         id="rect9259-9"
         width="26.868816"
         height="43.328419"
         x="24.522131"
         y="287.98123"
         ry="0.63294536"
         inkscape:export-filename="logo1.svg"
         inkscape:export-xdpi="96"
         inkscape:export-ydpi="96" /><path
         style="fill:#f8e45c;stroke:#f8e45c;stroke-width:0;stroke-linecap:round;stroke-linejoin:round;stroke-dasharray:none"
         d="m 23.716841,314.71481 2.119771,-1.1008 0.74698,-0.56901 0.29583,-0.35251 2.290681,-1.74382 0.35477,-0.0985 0.655931,0.0315 0.42223,-0.18095 1.450261,-0.12991 1.18354,-0.0661 0.440071,-0.10699 0.79614,-0.0193 0.803601,-0.046 0.58009,-3.2973 0.19657,-0.16775 -4.685693,-8.2774 0.0245,-0.0894 -0.12105,-0.21783 1.06447,-0.9981 13.452672,23.19506 -1.32851,0.50215 -0.1295,-0.17658 -0.0769,-0.006 -4.85474,-8.06426 -0.24669,0.12288 -2.95023,-0.99232 -1.0241,0.8583 0.22511,0.0809 0.15157,0.17594 0.0502,0.24757 -0.0347,0.46897 -0.12397,0.24772 -0.2594,0.19641 -0.296701,-0.0782 -0.14633,-0.10085 -0.18861,-0.0518 -0.29879,-0.0109 -0.37083,-0.0818 -0.573371,0.46103 0.283911,0.12054 0.216,0.25112 0.096,0.26956 -0.0428,0.42111 -0.17171,0.2955 -0.359961,0.21598 -0.41998,0.0893 0.0106,0.11533 -0.0509,0.37315 -0.24097,0.28156 -0.36025,0.1403 -0.82792,0.0154 -0.45132,0.42473 -0.22794,-0.007 -0.21093,0.0411 -0.0807,0.0958 -0.227291,0.0651 -0.51373,0.21077 -0.45309,0.0778 -0.19918,-0.0572 -0.15974,0.0743 -0.11148,-0.0241 -0.187811,0.01 -0.0703,-0.0648 -0.25227,0.0295 -0.27615,0.13072 -0.10435,0.003 -0.17962,0.12266 -0.16727,0.10558 -0.12621,-5e-4 -0.0827,0.11181 -0.0947,0.0264 -0.0295,0.0951 -0.233461,0.27665 -0.476489,0.74254 -0.38106,0.71429 -0.664301,1.12601 -1.41668,2.53014 -0.202861,-0.0409 z"
         id="path9261-3"
         sodipodi:nodetypes="ccccccccccccccccccccccccccccccccccccccccccccccccccccccccccccccccccccccccccccccc" /><g
         inkscape:label="Layer 1"
         id="layer1-2-2-1"
         transform="translate(94.570107,295.62265)"><text
           xml:space="preserve"
           transform="matrix(2.6172535,0,0,2.5912106,-509.83796,-936.09738)"
           id="text1-2-9"
           style="font-style:normal;font-variant:normal;font-weight:normal;font-stretch:normal;font-size:24px;font-family:Futura;-inkscape-font-specification:'Futura, Normal';font-variant-ligatures:normal;font-variant-caps:normal;font-variant-numeric:normal;font-variant-east-asian:normal;white-space:pre;shape-inside:url(#rect2-5-1);display:inline;fill:#f8e45c;stroke:#f8e45c;stroke-width:0;stroke-linecap:round;stroke-linejoin:round;stroke-dasharray:none"><tspan
             x="216.8457"
             y="375.42253"
             id="tspan3">Fönsterputs</tspan></text></g><g
         inkscape:label="Layer 1"
         id="layer1-3"
         transform="matrix(1,0,0,0.92919195,278.30173,315.00733)"><text
           xml:space="preserve"
           transform="matrix(2.6172535,0,0,2.788671,-789.48591,-1028.0176)"
           id="text3323"
           style="font-style:normal;font-variant:normal;font-weight:bold;font-stretch:normal;font-size:24px;font-family:Futura;-inkscape-font-specification:'Futura, Bold';font-variant-ligatures:normal;font-variant-caps:normal;font-variant-numeric:normal;font-variant-east-asian:normal;white-space:pre;shape-inside:url(#rect3325);display:inline;fill:#f8e45c;stroke:#f8e45c;stroke-width:0;stroke-linecap:round;stroke-linejoin:round;stroke-dasharray:none"><tspan
             x="216.8457"
             y="375.42253"
             id="tspan4">VG</tspan></text><rect
           style="fill:#000000;fill-opacity:1;stroke:#f8e45c;stroke-width:3.24829;stroke-linecap:round;stroke-linejoin:round;stroke-dasharray:none"
           id="rect9259-9-6"
           width="26.868816"
           height="46.630215"
           x="-253.72104"
           y="-140.73978"
           ry="0.68117827"
           inkscape:export-filename="logo1.svg"
           inkscape:export-xdpi="96"
           inkscape:export-ydpi="96" /><path
           style="fill:#f8e45c;stroke:#f8e45c;stroke-width:0;stroke-linecap:round;stroke-linejoin:round;stroke-dasharray:none"
           d="m -254.52633,-111.96901 2.11977,-1.18468 0.74698,-0.61237 0.29583,-0.37938 2.29068,-1.87671 0.35477,-0.106 0.65593,0.0339 0.42223,-0.19474 1.45027,-0.13981 1.18354,-0.0711 0.44007,-0.11514 0.79614,-0.0208 0.8036,-0.0495 0.58009,-3.54857 0.19657,-0.18053 -4.6857,-8.90818 0.0245,-0.0962 -0.12105,-0.23443 1.06447,-1.07416 13.45268,24.96262 -1.32851,0.54042 -0.1295,-0.19004 -0.0769,-0.006 -4.85474,-8.67879 -0.24669,0.13224 -2.95023,-1.06794 -1.0241,0.92371 0.22511,0.0871 0.15157,0.18935 0.0502,0.26643 -0.0347,0.50471 -0.12397,0.2666 -0.2594,0.21137 -0.29671,-0.0842 -0.14632,-0.10853 -0.18861,-0.0558 -0.29879,-0.0117 -0.37083,-0.088 -0.57338,0.49616 0.28392,0.12973 0.216,0.27025 0.096,0.2901 -0.0428,0.45321 -0.17171,0.31802 -0.35997,0.23244 -0.41998,0.0961 0.0106,0.12412 -0.0509,0.40158 -0.24097,0.30302 -0.36025,0.15099 -0.82792,0.0166 -0.45132,0.45709 -0.22794,-0.008 -0.21093,0.0442 -0.0807,0.1031 -0.22729,0.0701 -0.51373,0.22683 -0.45309,0.0837 -0.19918,-0.0616 -0.15974,0.08 -0.11148,-0.0259 -0.18781,0.0108 -0.0703,-0.0697 -0.25227,0.0318 -0.27615,0.14068 -0.10435,0.003 -0.17962,0.13201 -0.16727,0.11362 -0.12621,-5.4e-4 -0.0827,0.12033 -0.0947,0.0284 -0.0295,0.10234 -0.23346,0.29774 -0.47649,0.79912 -0.38106,0.76872 -0.6643,1.21182 -1.41668,2.72294 -0.20286,-0.044 z"
           id="path9261-3-1"
           sodipodi:nodetypes="ccccccccccccccccccccccccccccccccccccccccccccccccccccccccccccccccccccccccccccccc" /><g
           inkscape:label="Layer 1"
           id="layer1-2-2-1-06"
           transform="matrix(1,0,0,1.0762039,-183.67306,-132.51608)"><text
             xml:space="preserve"
             transform="matrix(2.6172535,0,0,2.5912106,-509.83796,-936.09738)"
             id="text1-2-9-1"
             style="font-style:normal;font-variant:normal;font-weight:normal;font-stretch:normal;font-size:24px;font-family:Futura;-inkscape-font-specification:'Futura, Normal';font-variant-ligatures:normal;font-variant-caps:normal;font-variant-numeric:normal;font-variant-east-asian:normal;white-space:pre;shape-inside:url(#rect2-5-1-2);display:inline;fill:#f8e45c;stroke:#f8e45c;stroke-width:0;stroke-linecap:round;stroke-linejoin:round;stroke-dasharray:none"><tspan
               x="216.8457"
               y="375.42253"
               id="tspan5">Fönsterputs</tspan></text></g><text
           xml:space="preserve"
           transform="matrix(2.6172535,0,0,2.788671,-789.42735,-1139.6727)"
           id="text3323-9"
           style="font-style:normal;font-variant:normal;font-weight:bold;font-stretch:normal;font-size:24px;font-family:Futura;-inkscape-font-specification:'Futura, Bold';font-variant-ligatures:normal;font-variant-caps:normal;font-variant-numeric:normal;font-variant-east-asian:normal;white-space:pre;shape-inside:url(#rect3325-27);display:inline;fill:#000000;stroke:#f8e45c;stroke-width:0;stroke-linecap:round;stroke-linejoin:round;stroke-dasharray:none"><tspan
             x="216.8457"
             y="375.42253"
             id="tspan6">VG</tspan></text><rect
           style="fill:#000000;fill-opacity:1;stroke:none;stroke-width:0;stroke-dasharray:none"
           id="rect1-49"
           width="158.73465"
           height="84.885017"
           x="-273.88519"
           y="358.63522"
           ry="5.5772901" /><rect
           style="fill:none;fill-opacity:1;stroke:#f8e45c;stroke-width:3.24829;stroke-linecap:round;stroke-linejoin:round;stroke-dasharray:none"
           id="rect9259-9-2"
           width="26.868816"
           height="46.630215"
           x="-253.7796"
           y="377.73688"
           ry="0.68117827"
           inkscape:export-filename="logo1.svg"
           inkscape:export-xdpi="96"
           inkscape:export-ydpi="96" /><path
           style="fill:#f8e45c;stroke:#f8e45c;stroke-width:0;stroke-linecap:round;stroke-linejoin:round;stroke-dasharray:none"
           d="m -254.5849,406.50796 2.11977,-1.18469 0.74698,-0.61237 0.29583,-0.37937 2.29068,-1.87671 0.35477,-0.106 0.65593,0.0339 0.42223,-0.19474 1.45027,-0.13981 1.18353,-0.0711 0.44008,-0.11514 0.79614,-0.0208 0.8036,-0.0495 0.58009,-3.54857 0.19657,-0.18053 -4.6857,-8.90817 0.0245,-0.0962 -0.12105,-0.23443 1.06447,-1.07416 13.45268,24.96261 -1.32851,0.54042 -0.1295,-0.19004 -0.0769,-0.006 -4.85474,-8.67879 -0.24669,0.13224 -2.95023,-1.06794 -1.0241,0.92371 0.22511,0.0871 0.15157,0.18935 0.0502,0.26644 -0.0347,0.5047 -0.12397,0.2666 -0.2594,0.21138 -0.29671,-0.0842 -0.14632,-0.10854 -0.18861,-0.0557 -0.29879,-0.0117 -0.37083,-0.088 -0.57338,0.49616 0.28391,0.12973 0.21601,0.27026 0.096,0.2901 -0.0428,0.4532 -0.17172,0.31802 -0.35996,0.23244 -0.41998,0.0961 0.0106,0.12412 -0.0509,0.40158 -0.24097,0.30302 -0.36025,0.15099 -0.82792,0.0166 -0.45132,0.45709 -0.22794,-0.008 -0.21093,0.0442 -0.0807,0.1031 -0.22729,0.0701 -0.51373,0.22683 -0.45309,0.0837 -0.19918,-0.0616 -0.15974,0.08 -0.11148,-0.0259 -0.18781,0.0108 -0.0703,-0.0697 -0.25227,0.0318 -0.27615,0.14068 -0.10435,0.003 -0.17962,0.13201 -0.16727,0.11362 -0.12621,-5.4e-4 -0.0827,0.12033 -0.0947,0.0284 -0.0295,0.10234 -0.23346,0.29774 -0.47649,0.79912 -0.38106,0.76872 -0.6643,1.21182 -1.41668,2.72294 -0.20286,-0.044 z"
           id="path9261-3-0"
           sodipodi:nodetypes="ccccccccccccccccccccccccccccccccccccccccccccccccccccccccccccccccccccccccccccccc" /><rect
           style="fill:#000000;fill-opacity:1;stroke:none;stroke-width:0;stroke-dasharray:none"
           id="rect1-49-4"
           width="67.127533"
           height="84.887619"
           x="-273.88519"
           y="544.63733"
           ry="5.5774612" /><rect
           style="fill:none;fill-opacity:1;stroke:#f8e45c;stroke-width:3.24829;stroke-linecap:round;stroke-linejoin:round;stroke-dasharray:none"
           id="rect9259-9-2-8"
           width="26.868816"
           height="46.630215"
           x="-253.77959"
           y="563.73907"
           ry="0.68117827"
           inkscape:export-filename="logo1.svg"
           inkscape:export-xdpi="96"
           inkscape:export-ydpi="96" /><path
           style="fill:#f8e45c;stroke:#f8e45c;stroke-width:0;stroke-linecap:round;stroke-linejoin:round;stroke-dasharray:none"
           d="m -254.58488,592.51029 2.11977,-1.18469 0.74698,-0.61237 0.29583,-0.37937 2.29068,-1.87671 0.35477,-0.106 0.65593,0.0339 0.42223,-0.19474 1.45027,-0.13981 1.18353,-0.0711 0.44008,-0.11514 0.79614,-0.0208 0.8036,-0.0495 0.58009,-3.54857 0.19657,-0.18053 -4.6857,-8.90817 0.0245,-0.0962 -0.12105,-0.23443 1.06447,-1.07416 13.45268,24.96261 -1.32851,0.54042 -0.1295,-0.19004 -0.0769,-0.006 -4.85474,-8.67879 -0.24669,0.13224 -2.95023,-1.06794 -1.0241,0.92371 0.22511,0.0871 0.15157,0.18935 0.0502,0.26644 -0.0347,0.5047 -0.12397,0.2666 -0.2594,0.21138 -0.29671,-0.0842 -0.14632,-0.10854 -0.18861,-0.0557 -0.29879,-0.0117 -0.37083,-0.088 -0.57338,0.49616 0.28391,0.12973 0.21601,0.27026 0.096,0.2901 -0.0428,0.4532 -0.17172,0.31802 -0.35996,0.23244 -0.41998,0.0961 0.0106,0.12412 -0.0509,0.40158 -0.24097,0.30302 -0.36025,0.15099 -0.82792,0.0166 -0.45132,0.45709 -0.22794,-0.008 -0.21093,0.0442 -0.0807,0.1031 -0.22729,0.0701 -0.51373,0.22683 -0.45309,0.0837 -0.19918,-0.0616 -0.15974,0.08 -0.11148,-0.0259 -0.18781,0.0108 -0.0703,-0.0697 -0.25227,0.0318 -0.27615,0.14068 -0.10435,0.003 -0.17962,0.13201 -0.16727,0.11362 -0.12621,-5.4e-4 -0.0827,0.12033 -0.0947,0.0284 -0.0295,0.10234 -0.23346,0.29774 -0.47649,0.79912 -0.38106,0.76872 -0.6643,1.21182 -1.41668,2.72294 -0.20286,-0.044 z"
           id="path9261-3-0-7"
           sodipodi:nodetypes="ccccccccccccccccccccccccccccccccccccccccccccccccccccccccccccccccccccccccccccccc" /><rect
           style="fill:none;fill-opacity:1;stroke:#f8e45c;stroke-width:3.24829;stroke-linecap:round;stroke-linejoin:round;stroke-dasharray:none"
           id="rect9259-9-2-6"
           width="26.868816"
           height="46.630215"
           x="-253.72104"
           y="473.50085"
           ry="0.68117827"
           inkscape:export-filename="logo1.svg"
           inkscape:export-xdpi="96"
           inkscape:export-ydpi="96" /><path
           style="fill:#f8e45c;stroke:#f8e45c;stroke-width:0;stroke-linecap:round;stroke-linejoin:round;stroke-dasharray:none"
           d="m -254.52634,502.27233 2.11977,-1.18469 0.74698,-0.61237 0.29583,-0.37937 2.29068,-1.87671 0.35477,-0.106 0.65593,0.0339 0.42223,-0.19474 1.45027,-0.13981 1.18353,-0.0711 0.44008,-0.11514 0.79614,-0.0208 0.8036,-0.0495 0.58009,-3.54857 0.19657,-0.18053 -4.6857,-8.90817 0.0245,-0.0962 -0.12105,-0.23443 1.06447,-1.07416 13.45268,24.96261 -1.32851,0.54042 -0.1295,-0.19004 -0.0769,-0.006 -4.85474,-8.67879 -0.24669,0.13224 -2.95023,-1.06794 -1.0241,0.92371 0.22511,0.0871 0.15157,0.18935 0.0502,0.26644 -0.0347,0.5047 -0.12397,0.2666 -0.2594,0.21138 -0.29671,-0.0842 -0.14632,-0.10854 -0.18861,-0.0557 -0.29879,-0.0117 -0.37083,-0.088 -0.57338,0.49616 0.28391,0.12973 0.21601,0.27026 0.096,0.2901 -0.0428,0.4532 -0.17172,0.31802 -0.35996,0.23244 -0.41998,0.0961 0.0106,0.12412 -0.0509,0.40158 -0.24097,0.30302 -0.36025,0.15099 -0.82792,0.0166 -0.45132,0.45709 -0.22794,-0.008 -0.21093,0.0442 -0.0807,0.1031 -0.22729,0.0701 -0.51373,0.22683 -0.45309,0.0837 -0.19918,-0.0616 -0.15974,0.08 -0.11148,-0.0259 -0.18781,0.0108 -0.0703,-0.0697 -0.25227,0.0318 -0.27615,0.14068 -0.10435,0.003 -0.17962,0.13201 -0.16727,0.11362 -0.12621,-5.4e-4 -0.0827,0.12033 -0.0947,0.0284 -0.0295,0.10234 -0.23346,0.29774 -0.47649,0.79912 -0.38106,0.76872 -0.6643,1.21182 -1.41668,2.72294 -0.20286,-0.044 z"
           id="path9261-3-0-4"
           sodipodi:nodetypes="ccccccccccccccccccccccccccccccccccccccccccccccccccccccccccccccccccccccccccccccc" /><text
           xml:space="preserve"
           transform="matrix(2.6172535,0,0,2.788671,-789.48592,-621.19482)"
           id="text3323-6"
           style="font-style:normal;font-variant:normal;font-weight:bold;font-stretch:normal;font-size:24px;font-family:Futura;-inkscape-font-specification:'Futura, Bold';font-variant-ligatures:normal;font-variant-caps:normal;font-variant-numeric:normal;font-variant-east-asian:normal;white-space:pre;shape-inside:url(#rect3325-3);display:inline;fill:#f8e45c;stroke:#f8e45c;stroke-width:0;stroke-linecap:round;stroke-linejoin:round;stroke-dasharray:none"><tspan
             x="216.8457"
             y="375.42253"
             id="tspan7">VG</tspan></text></g></g><rect
       style="fill:#000000;fill-opacity:1;stroke:none;stroke-width:0;stroke-dasharray:none"
       id="rect1-4"
       width="480.88437"
       height="85.868904"
       x="145.50169"
       y="243.68137"
       ry="5.6419358" /><g
       inkscape:label="Layer 1"
       id="layer1-2-7"
       transform="matrix(1,0,0,1.0762039,141.08517,-47.1435)"><g
         inkscape:label="Layer 1"
         id="layer1-2-2-1-0"
         transform="translate(59.667756,295.62265)"><text
           xml:space="preserve"
           transform="matrix(2.6172535,0,0,2.5912106,-509.83796,-936.09738)"
           id="text1-2-9-7"
           style="font-style:normal;font-variant:normal;font-weight:normal;font-stretch:normal;font-size:24px;font-family:Futura;-inkscape-font-specification:'Futura, Normal';font-variant-ligatures:normal;font-variant-caps:normal;font-variant-numeric:normal;font-variant-east-asian:normal;white-space:pre;shape-inside:url(#rect2-5-1-5);display:inline;fill:#f8e45c;stroke:#f8e45c;stroke-width:0;stroke-linecap:round;stroke-linejoin:round;stroke-dasharray:none"><tspan
             x="216.8457"
             y="375.42253"
             id="tspan8">Fönsterputs</tspan></text></g><g
         inkscape:label="Layer 1"
         id="layer1-3-86"
         transform="matrix(1,0,0,0.92919195,243.39938,315.00733)"><text
           xml:space="preserve"
           transform="matrix(2.6172535,0,0,2.788671,-789.48591,-1028.0176)"
           id="text3323-8"
           style="font-style:normal;font-variant:normal;font-weight:bold;font-stretch:normal;font-size:24px;font-family:Futura;-inkscape-font-specification:'Futura, Bold';font-variant-ligatures:normal;font-variant-caps:normal;font-variant-numeric:normal;font-variant-east-asian:normal;white-space:pre;shape-inside:url(#rect3325-2);display:inline;fill:#f8e45c;stroke:#f8e45c;stroke-width:0;stroke-linecap:round;stroke-linejoin:round;stroke-dasharray:none"><tspan
             x="216.8457"
             y="375.42253"
             id="tspan9">VG</tspan></text></g></g><g
       inkscape:label="Layer 1"
       id="layer1-2-2-5"
       transform="matrix(1,0,0,1.0762039,184.11115,-187.51275)"><text
         xml:space="preserve"
         transform="matrix(1.7230555,0,0,1.8039572,-298.37837,-328.73997)"
         id="text1-2-0-7"
         style="font-style:normal;font-variant:normal;font-weight:normal;font-stretch:normal;font-size:24px;font-family:Futura;-inkscape-font-specification:'Futura, Normal';font-variant-ligatures:normal;font-variant-caps:normal;font-variant-numeric:normal;font-variant-east-asian:normal;white-space:pre;shape-inside:url(#rect2-5-4-1);display:inline;fill:#f8e45c;stroke:#f8e45c;stroke-width:0;stroke-linecap:round;stroke-linejoin:round;stroke-dasharray:none"><tspan
           x="216.8457"
           y="375.42253"
           id="tspan10">070 932 54 86</tspan></text><text
         xml:space="preserve"
         transform="matrix(1.7542895,0,0,1.8039572,-385.96343,-392.92349)"
         id="text2-2"
         style="font-style:normal;font-variant:normal;font-weight:normal;font-stretch:normal;font-size:24px;font-family:Futura;-inkscape-font-specification:'Futura, Normal';font-variant-ligatures:normal;font-variant-caps:normal;font-variant-numeric:normal;font-variant-east-asian:normal;white-space:pre;shape-inside:url(#rect3-7);display:inline;fill:#f8e45c;stroke:#f8e45c;stroke-width:0;stroke-linecap:round;stroke-linejoin:round;stroke-dasharray:none"><tspan
           x="216.8457"
           y="375.42253"
           id="tspan11">info@vgfonsterputs.se</tspan></text></g></g></svg>
