<?xml version="1.0" encoding="UTF-8" standalone="no"?>
<!-- Created with Inkscape (http://www.inkscape.org/) -->

<svg
   width="30mm"
   height="49.999996mm"
   viewBox="0 0 30 49.999996"
   version="1.1"
   id="svg1"
   xml:space="preserve"
   inkscape:version="1.3.2 (091e20ef0f, 2023-11-25)"
   sodipodi:docname="backprint.svg"
   inkscape:export-filename="backprint.pdf"
   inkscape:export-xdpi="96"
   inkscape:export-ydpi="96"
   xmlns:inkscape="http://www.inkscape.org/namespaces/inkscape"
   xmlns:sodipodi="http://sodipodi.sourceforge.net/DTD/sodipodi-0.dtd"
   xmlns="http://www.w3.org/2000/svg"
   xmlns:svg="http://www.w3.org/2000/svg"><sodipodi:namedview
     id="namedview1"
     pagecolor="#ffffff"
     bordercolor="#000000"
     borderopacity="0.25"
     inkscape:showpageshadow="2"
     inkscape:pageopacity="0.0"
     inkscape:pagecheckerboard="0"
     inkscape:deskcolor="#d1d1d1"
     inkscape:document-units="mm"
     inkscape:zoom="0.18254406"
     inkscape:cx="865.54447"
     inkscape:cy="1659.8733"
     inkscape:window-width="1680"
     inkscape:window-height="989"
     inkscape:window-x="0"
     inkscape:window-y="30"
     inkscape:window-maximized="1"
     inkscape:current-layer="layer1-2-2-5"
     showgrid="false" /><defs
     id="defs1"><rect
       x="216.84602"
       y="353.20709"
       width="512.78119"
       height="219.78326"
       id="rect2" /><rect
       x="216.84602"
       y="353.20709"
       width="512.78119"
       height="219.78326"
       id="rect2-5" /><rect
       x="216.84602"
       y="353.20709"
       width="512.78119"
       height="219.78326"
       id="rect2-6" /><rect
       x="216.84602"
       y="353.20709"
       width="512.78119"
       height="219.78326"
       id="rect2-5-1" /><rect
       x="216.84603"
       y="353.2071"
       width="512.78117"
       height="219.78327"
       id="rect2-50" /><rect
       x="216.84602"
       y="353.20709"
       width="512.78119"
       height="219.78326"
       id="rect2-2" /><rect
       x="216.84602"
       y="353.20709"
       width="512.78119"
       height="219.78326"
       id="rect2-2-7" /><rect
       x="216.84602"
       y="353.20709"
       width="512.78119"
       height="219.78326"
       id="rect2-2-7-0" /><rect
       x="216.84603"
       y="353.2071"
       width="512.78117"
       height="219.78327"
       id="rect349" /><rect
       x="216.84603"
       y="353.2071"
       width="512.78117"
       height="219.78327"
       id="rect2181" /><rect
       x="216.84603"
       y="353.2071"
       width="512.78117"
       height="219.78327"
       id="rect3257" /><rect
       x="216.84603"
       y="353.2071"
       width="512.78117"
       height="219.78327"
       id="rect3325" /><rect
       x="216.84602"
       y="353.20709"
       width="512.78119"
       height="219.78326"
       id="rect2-20" /><rect
       x="216.84602"
       y="353.20709"
       width="512.78119"
       height="219.78326"
       id="rect2-5-1-6" /><rect
       x="216.84602"
       y="353.20709"
       width="512.78119"
       height="219.78326"
       id="rect3325-1" /><rect
       x="216.84602"
       y="353.20709"
       width="512.78119"
       height="219.78326"
       id="rect2-5-5" /><rect
       x="216.84602"
       y="353.20709"
       width="512.78119"
       height="219.78326"
       id="rect2-7" /><rect
       x="216.84602"
       y="353.20709"
       width="512.78119"
       height="219.78326"
       id="rect2-5-1-4" /><rect
       x="216.84602"
       y="353.20709"
       width="512.78119"
       height="219.78326"
       id="rect3325-4" /><rect
       x="216.84602"
       y="353.20709"
       width="512.78119"
       height="219.78326"
       id="rect2-5-3" /><rect
       x="216.84602"
       y="353.20709"
       width="512.78119"
       height="219.78326"
       id="rect2-5-4" /><rect
       x="216.84602"
       y="353.20709"
       width="512.78119"
       height="219.78326"
       id="rect3" /><rect
       x="216.84602"
       y="353.20709"
       width="512.78119"
       height="219.78326"
       id="rect2-5-4-1" /><rect
       x="216.84602"
       y="353.20709"
       width="512.78119"
       height="219.78326"
       id="rect3-7" /></defs><g
     inkscape:label="Layer 1"
     inkscape:groupmode="layer"
     id="layer1"
     transform="translate(-164.04169,-5.2916687)"><rect
       style="fill:none;fill-opacity:1;stroke:#f8e45c;stroke-width:3.24568;stroke-linecap:round;stroke-linejoin:round;stroke-dasharray:none"
       id="rect9259"
       width="26.75432"
       height="46.754322"
       x="165.66454"
       y="6.9145088"
       ry="0.68299133"
       inkscape:export-filename="logo1.svg"
       inkscape:export-xdpi="96"
       inkscape:export-ydpi="96" /><path
       style="fill:#f8e45c;stroke:#f8e45c;stroke-width:0;stroke-linecap:round;stroke-linejoin:round;stroke-dasharray:none"
       d="m 164.8605,35.686895 2.11977,-1.18469 0.74698,-0.612371 0.29583,-0.379371 2.29068,-1.876713 0.35477,-0.105994 0.65593,0.03394 0.42223,-0.194739 1.45026,-0.13981 1.18354,-0.07115 0.44007,-0.115139 0.79614,-0.02081 0.8036,-0.04951 0.58009,-3.548573 0.19657,-0.180527 -4.68569,-8.908168 0.0245,-0.09622 -0.12105,-0.234432 1.06447,-1.074154 13.45267,24.96262 -1.32851,0.54041 -0.1295,-0.190034 -0.0769,-0.0065 -4.85474,-8.678789 -0.24669,0.13224 -2.95023,-1.067935 -1.0241,0.923704 0.22511,0.08705 0.15157,0.189346 0.0502,0.266432 -0.0347,0.504714 -0.12397,0.266598 -0.2594,0.211378 -0.2967,-0.08417 -0.14633,-0.108541 -0.18861,-0.05578 -0.29879,-0.0117 -0.37083,-0.08806 -0.57337,0.496167 0.28391,0.129726 0.216,0.270256 0.096,0.290104 -0.0428,0.453196 -0.17171,0.31802 -0.35996,0.232441 -0.41998,0.09605 0.0106,0.124117 -0.0509,0.401589 -0.24097,0.303017 -0.36025,0.150991 -0.82792,0.01657 -0.45132,0.457097 -0.22794,-0.0079 -0.21093,0.04423 -0.0807,0.103096 -0.22729,0.07007 -0.51373,0.226824 -0.45309,0.08374 -0.19918,-0.06159 -0.15974,0.07991 -0.11148,-0.02591 -0.18781,0.01037 -0.0703,-0.06972 -0.25227,0.03178 -0.27615,0.140682 -0.10435,0.003 -0.17962,0.132005 -0.16727,0.113633 -0.12621,-5.41e-4 -0.0827,0.120334 -0.0947,0.02841 -0.0295,0.102348 -0.23346,0.297729 -0.47649,0.799118 -0.38106,0.768725 -0.6643,1.211813 -1.41668,2.722939 -0.20286,-0.04404 z"
       id="path9261"
       sodipodi:nodetypes="ccccccccccccccccccccccccccccccccccccccccccccccccccccccccccccccccccccccccccccccc" /><g
       inkscape:label="Layer 1"
       id="layer1-2"
       transform="matrix(1,0,0,1.0762039,141.08515,15.139825)"><text
         xml:space="preserve"
         transform="matrix(2.6172535,0,0,2.5912106,-509.83796,-936.09738)"
         id="text1"
         style="font-style:normal;font-variant:normal;font-weight:normal;font-stretch:normal;font-size:24px;font-family:Futura;-inkscape-font-specification:'Futura, Normal';font-variant-ligatures:normal;font-variant-caps:normal;font-variant-numeric:normal;font-variant-east-asian:normal;white-space:pre;shape-inside:url(#rect2);display:inline;fill:#f8e45c;stroke:#f8e45c;stroke-width:0;stroke-linecap:round;stroke-linejoin:round;stroke-dasharray:none"><tspan
           x="216.8457"
           y="375.42253"
           id="tspan7">VG</tspan></text><rect
         style="fill:none;fill-opacity:1;stroke:#f8e45c;stroke-width:3.12866;stroke-linecap:round;stroke-linejoin:round;stroke-dasharray:none"
         id="rect9259-9"
         width="26.75432"
         height="43.443741"
         x="24.52087"
         y="287.97998"
         ry="0.63463002"
         inkscape:export-filename="logo1.svg"
         inkscape:export-xdpi="96"
         inkscape:export-ydpi="96" /><path
         style="fill:#f8e45c;stroke:#f8e45c;stroke-width:0;stroke-linecap:round;stroke-linejoin:round;stroke-dasharray:none"
         d="m 23.716841,314.71481 2.119771,-1.1008 0.74698,-0.56901 0.29583,-0.35251 2.290681,-1.74382 0.35477,-0.0985 0.655931,0.0315 0.42223,-0.18095 1.450261,-0.12991 1.18354,-0.0661 0.440071,-0.10699 0.79614,-0.0193 0.803601,-0.046 0.58009,-3.2973 0.19657,-0.16775 -4.685693,-8.2774 0.0245,-0.0894 -0.12105,-0.21783 1.06447,-0.9981 13.452672,23.19506 -1.32851,0.50215 -0.1295,-0.17658 -0.0769,-0.006 -4.85474,-8.06426 -0.24669,0.12288 -2.95023,-0.99232 -1.0241,0.8583 0.22511,0.0809 0.15157,0.17594 0.0502,0.24757 -0.0347,0.46897 -0.12397,0.24772 -0.2594,0.19641 -0.296701,-0.0782 -0.14633,-0.10085 -0.18861,-0.0518 -0.29879,-0.0109 -0.37083,-0.0818 -0.573371,0.46103 0.283911,0.12054 0.216,0.25112 0.096,0.26956 -0.0428,0.42111 -0.17171,0.2955 -0.359961,0.21598 -0.41998,0.0893 0.0106,0.11533 -0.0509,0.37315 -0.24097,0.28156 -0.36025,0.1403 -0.82792,0.0154 -0.45132,0.42473 -0.22794,-0.007 -0.21093,0.0411 -0.0807,0.0958 -0.227291,0.0651 -0.51373,0.21077 -0.45309,0.0778 -0.19918,-0.0572 -0.15974,0.0743 -0.11148,-0.0241 -0.187811,0.01 -0.0703,-0.0648 -0.25227,0.0295 -0.27615,0.13072 -0.10435,0.003 -0.17962,0.12266 -0.16727,0.10558 -0.12621,-5e-4 -0.0827,0.11181 -0.0947,0.0264 -0.0295,0.0951 -0.233461,0.27665 -0.476489,0.74254 -0.38106,0.71429 -0.664301,1.12601 -1.41668,2.53014 -0.202861,-0.0409 z"
         id="path9261-3"
         sodipodi:nodetypes="ccccccccccccccccccccccccccccccccccccccccccccccccccccccccccccccccccccccccccccccc" /><g
         inkscape:label="Layer 1"
         id="layer1-2-2-1"
         transform="translate(94.570107,295.62265)"><text
           xml:space="preserve"
           transform="matrix(2.6172535,0,0,2.5912106,-509.83796,-936.09738)"
           id="text1-2-9"
           style="font-style:normal;font-variant:normal;font-weight:normal;font-stretch:normal;font-size:24px;font-family:Futura;-inkscape-font-specification:'Futura, Normal';font-variant-ligatures:normal;font-variant-caps:normal;font-variant-numeric:normal;font-variant-east-asian:normal;white-space:pre;shape-inside:url(#rect2-5-1);display:inline;fill:#f8e45c;stroke:#f8e45c;stroke-width:0;stroke-linecap:round;stroke-linejoin:round;stroke-dasharray:none"><tspan
             x="216.8457"
             y="375.42253"
             id="tspan8">Fönsterputs</tspan></text></g><g
         inkscape:label="Layer 1"
         id="layer1-3"
         transform="matrix(1,0,0,0.92919195,278.30173,315.00733)"><text
           xml:space="preserve"
           transform="matrix(2.6172535,0,0,2.788671,-789.48591,-1028.0176)"
           id="text3323"
           style="font-style:normal;font-variant:normal;font-weight:bold;font-stretch:normal;font-size:24px;font-family:Futura;-inkscape-font-specification:'Futura, Bold';font-variant-ligatures:normal;font-variant-caps:normal;font-variant-numeric:normal;font-variant-east-asian:normal;white-space:pre;shape-inside:url(#rect3325);display:inline;fill:#f8e45c;stroke:#f8e45c;stroke-width:0;stroke-linecap:round;stroke-linejoin:round;stroke-dasharray:none"><tspan
             x="216.8457"
             y="375.42253"
             id="tspan9">VG</tspan></text></g></g><g
       inkscape:label="Layer 1"
       id="layer1-2-2"
       transform="matrix(1,0,0,1.0762039,235.71376,15.139826)"><text
         xml:space="preserve"
         transform="matrix(2.6172535,0,0,2.5912106,-509.83796,-936.09738)"
         id="text1-2"
         style="font-style:normal;font-variant:normal;font-weight:normal;font-stretch:normal;font-size:24px;font-family:Futura;-inkscape-font-specification:'Futura, Normal';font-variant-ligatures:normal;font-variant-caps:normal;font-variant-numeric:normal;font-variant-east-asian:normal;white-space:pre;shape-inside:url(#rect2-5);display:inline;fill:#f8e45c;stroke:#f8e45c;stroke-width:0;stroke-linecap:round;stroke-linejoin:round;stroke-dasharray:none"><tspan
           x="216.8457"
           y="375.42253"
           id="tspan10">Fönsterputs</tspan></text></g><g
       inkscape:label="Layer 1"
       id="layer1-2-2-6"
       transform="translate(237.54332,651.59805)"><text
         xml:space="preserve"
         transform="matrix(2.6172535,0,0,2.5912106,-509.83796,-936.09738)"
         id="text1-2-5"
         style="font-style:normal;font-variant:normal;font-weight:normal;font-stretch:normal;font-size:24px;font-family:Futura;-inkscape-font-specification:'Futura, Normal';font-variant-ligatures:normal;font-variant-caps:normal;font-variant-numeric:normal;font-variant-east-asian:normal;white-space:pre;shape-inside:url(#rect2-5-5);display:inline;fill:#f8e45c;stroke:#f8e45c;stroke-width:0;stroke-linecap:round;stroke-linejoin:round;stroke-dasharray:none"><tspan
           x="216.8457"
           y="375.42253"
           id="tspan11">Fönsterputs</tspan></text></g><text
       xml:space="preserve"
       transform="matrix(2.6172535,0,0,2.5912106,-366.92325,-284.4993)"
       id="text1-6"
       style="font-style:normal;font-variant:normal;font-weight:normal;font-stretch:normal;font-size:24px;font-family:Futura;-inkscape-font-specification:'Futura, Normal';font-variant-ligatures:normal;font-variant-caps:normal;font-variant-numeric:normal;font-variant-east-asian:normal;white-space:pre;shape-inside:url(#rect2-20);display:inline;fill:#f8e45c;stroke:#f8e45c;stroke-width:0;stroke-linecap:round;stroke-linejoin:round;stroke-dasharray:none"><tspan
         x="216.8457"
         y="375.42253"
         id="tspan12">VG</tspan></text><g
       inkscape:label="Layer 1"
       id="layer1-2-2-1-7"
       transform="translate(237.48482,725.95706)"><text
         xml:space="preserve"
         transform="matrix(2.6172535,0,0,2.5912106,-509.83796,-936.09738)"
         id="text1-2-9-4"
         style="font-style:normal;font-variant:normal;font-weight:normal;font-stretch:normal;font-size:24px;font-family:Futura;-inkscape-font-specification:'Futura, Normal';font-variant-ligatures:normal;font-variant-caps:normal;font-variant-numeric:normal;font-variant-east-asian:normal;white-space:pre;shape-inside:url(#rect2-5-1-6);display:inline;fill:#f8e45c;stroke:#f8e45c;stroke-width:0;stroke-linecap:round;stroke-linejoin:round;stroke-dasharray:none"><tspan
           x="216.8457"
           y="375.42253"
           id="tspan13">Fönsterputs</tspan></text></g><g
       inkscape:label="Layer 1"
       id="layer1-3-5"
       transform="matrix(1,0,0,0.92919195,421.21644,745.34174)"><text
         xml:space="preserve"
         transform="matrix(2.6172535,0,0,2.788671,-789.48591,-1028.0176)"
         id="text3323-2"
         style="font-style:normal;font-variant:normal;font-weight:bold;font-stretch:normal;font-size:24px;font-family:Futura;-inkscape-font-specification:'Futura, Bold';font-variant-ligatures:normal;font-variant-caps:normal;font-variant-numeric:normal;font-variant-east-asian:normal;white-space:pre;shape-inside:url(#rect3325-1);display:inline;fill:#f8e45c;stroke:#f8e45c;stroke-width:0;stroke-linecap:round;stroke-linejoin:round;stroke-dasharray:none"><tspan
           x="216.8457"
           y="375.42253"
           id="tspan14">VG</tspan></text></g><rect
       style="fill:none;fill-opacity:1;stroke:#f8e45c;stroke-width:3.24568;stroke-linecap:round;stroke-linejoin:round;stroke-dasharray:none"
       id="rect9259-7"
       width="26.75432"
       height="46.754322"
       x="165.39995"
       y="792.849"
       ry="0.68299133"
       inkscape:export-filename="logo1.svg"
       inkscape:export-xdpi="96"
       inkscape:export-ydpi="96" /><path
       style="fill:#f8e45c;stroke:#f8e45c;stroke-width:0;stroke-linecap:round;stroke-linejoin:round;stroke-dasharray:none"
       d="m 164.59591,821.62104 2.11977,-1.18469 0.74698,-0.61237 0.29583,-0.37937 2.29068,-1.87671 0.35477,-0.10599 0.65593,0.0339 0.42223,-0.19474 1.45026,-0.13981 1.18354,-0.0711 0.44007,-0.11514 0.79614,-0.0208 0.8036,-0.0495 0.58009,-3.54858 0.19657,-0.18052 -4.68569,-8.90817 0.0245,-0.0962 -0.12105,-0.23443 1.06447,-1.07416 13.45267,24.96262 -1.32851,0.54041 -0.1295,-0.19003 -0.0769,-0.007 -4.85474,-8.67879 -0.24669,0.13224 -2.95023,-1.06793 -1.0241,0.9237 0.22511,0.0871 0.15157,0.18935 0.0502,0.26643 -0.0347,0.50471 -0.12397,0.2666 -0.2594,0.21138 -0.2967,-0.0842 -0.14633,-0.10854 -0.18861,-0.0558 -0.29879,-0.0117 -0.37083,-0.0881 -0.57337,0.49616 0.28391,0.12973 0.216,0.27026 0.096,0.2901 -0.0428,0.4532 -0.17171,0.31802 -0.35996,0.23244 -0.41998,0.096 0.0106,0.12411 -0.0509,0.40159 -0.24097,0.30302 -0.36025,0.15099 -0.82792,0.0166 -0.45132,0.4571 -0.22794,-0.008 -0.21093,0.0442 -0.0807,0.10309 -0.22729,0.0701 -0.51373,0.22683 -0.45309,0.0837 -0.19918,-0.0616 -0.15974,0.0799 -0.11148,-0.0259 -0.18781,0.0104 -0.0703,-0.0697 -0.25227,0.0318 -0.27615,0.14068 -0.10435,0.003 -0.17962,0.132 -0.16727,0.11364 -0.12621,-5.4e-4 -0.0827,0.12033 -0.0947,0.0284 -0.0295,0.10235 -0.23346,0.29773 -0.47649,0.79912 -0.38106,0.76872 -0.6643,1.21181 -1.41668,2.72294 -0.20286,-0.044 z"
       id="path9261-8"
       sodipodi:nodetypes="ccccccccccccccccccccccccccccccccccccccccccccccccccccccccccccccccccccccccccccccc" /><text
       xml:space="preserve"
       transform="matrix(2.6172535,0,0,2.788671,-369.0174,-206.35768)"
       id="text1-3"
       style="font-style:normal;font-variant:normal;font-weight:normal;font-stretch:normal;font-size:24px;font-family:Futura;-inkscape-font-specification:'Futura, Normal';font-variant-ligatures:normal;font-variant-caps:normal;font-variant-numeric:normal;font-variant-east-asian:normal;white-space:pre;shape-inside:url(#rect2-7);display:inline;fill:#f8e45c;stroke:#f8e45c;stroke-width:0;stroke-linecap:round;stroke-linejoin:round;stroke-dasharray:none"><tspan
         x="216.8457"
         y="375.42253"
         id="tspan15">VG</tspan></text><rect
       style="fill:none;fill-opacity:1;stroke:#f8e45c;stroke-width:3.24568;stroke-linecap:round;stroke-linejoin:round;stroke-dasharray:none"
       id="rect9259-9-4"
       width="26.75432"
       height="46.754322"
       x="165.34143"
       y="872.87476"
       ry="0.68299133"
       inkscape:export-filename="logo1.svg"
       inkscape:export-xdpi="96"
       inkscape:export-ydpi="96" /><path
       style="fill:#f8e45c;stroke:#f8e45c;stroke-width:0;stroke-linecap:round;stroke-linejoin:round;stroke-dasharray:none"
       d="m 164.5374,901.64646 2.11977,-1.18469 0.74698,-0.61237 0.29583,-0.37937 2.29068,-1.87672 0.35477,-0.10599 0.65593,0.0339 0.42223,-0.19474 1.45026,-0.13981 1.18354,-0.0711 0.44008,-0.11513 0.79614,-0.0208 0.8036,-0.0495 0.58009,-3.54858 0.19657,-0.18052 -4.6857,-8.90817 0.0245,-0.0962 -0.12105,-0.23443 1.06447,-1.07415 13.45268,24.96262 -1.32851,0.54041 -0.1295,-0.19004 -0.0769,-0.006 -4.85474,-8.67879 -0.24669,0.13224 -2.95023,-1.06794 -1.0241,0.92371 0.22511,0.087 0.15157,0.18935 0.0502,0.26643 -0.0347,0.50471 -0.12397,0.2666 -0.2594,0.21138 -0.29671,-0.0842 -0.14633,-0.10854 -0.18861,-0.0558 -0.29879,-0.0117 -0.37083,-0.0881 -0.57337,0.49617 0.28391,0.12973 0.21601,0.27025 0.096,0.29011 -0.0428,0.45319 -0.17171,0.31802 -0.35996,0.23244 -0.41998,0.0961 0.0106,0.12412 -0.0509,0.40159 -0.24097,0.30302 -0.36025,0.15099 -0.82792,0.0166 -0.45132,0.4571 -0.22794,-0.008 -0.21093,0.0442 -0.0807,0.1031 -0.22729,0.0701 -0.51373,0.22682 -0.45309,0.0837 -0.19918,-0.0616 -0.15974,0.0799 -0.11148,-0.0259 -0.18781,0.0103 -0.0703,-0.0697 -0.25227,0.0318 -0.27615,0.14068 -0.10435,0.003 -0.17962,0.13201 -0.16727,0.11363 -0.12621,-5.4e-4 -0.0827,0.12033 -0.0947,0.0284 -0.0295,0.10234 -0.23346,0.29773 -0.47649,0.79912 -0.38106,0.76873 -0.6643,1.21181 -1.41668,2.72296 -0.20286,-0.044 z"
       id="path9261-3-9"
       sodipodi:nodetypes="ccccccccccccccccccccccccccccccccccccccccccccccccccccccccccccccccccccccccccccccc" /><g
       inkscape:label="Layer 1"
       id="layer1-3-8"
       transform="translate(419.12229,901.96126)"><text
         xml:space="preserve"
         transform="matrix(2.6172535,0,0,2.788671,-789.48591,-1028.0176)"
         id="text3323-9"
         style="font-style:normal;font-variant:normal;font-weight:bold;font-stretch:normal;font-size:24px;font-family:Futura;-inkscape-font-specification:'Futura, Bold';font-variant-ligatures:normal;font-variant-caps:normal;font-variant-numeric:normal;font-variant-east-asian:normal;white-space:pre;shape-inside:url(#rect3325-4);display:inline;fill:#f8e45c;stroke:#f8e45c;stroke-width:0;stroke-linecap:round;stroke-linejoin:round;stroke-dasharray:none"><tspan
           x="216.8457"
           y="375.42253"
           id="tspan16">VG</tspan></text></g><g
       inkscape:label="Layer 1"
       id="layer1-2-2-5"
       transform="matrix(1,0,0,1.0762039,184.11115,91.358043)"><text
         xml:space="preserve"
         transform="matrix(2.6172535,0,0,2.5912106,-537.88397,-939.04758)"
         id="text1-2-0"
         style="font-style:normal;font-variant:normal;font-weight:normal;font-stretch:normal;font-size:24px;font-family:Futura;-inkscape-font-specification:'Futura, Normal';font-variant-ligatures:normal;font-variant-caps:normal;font-variant-numeric:normal;font-variant-east-asian:normal;white-space:pre;shape-inside:url(#rect2-5-4);display:inline;fill:#f8e45c;stroke:#f8e45c;stroke-width:0;stroke-linecap:round;stroke-linejoin:round;stroke-dasharray:none"><tspan
           x="216.8457"
           y="375.42253"
           id="tspan17">0709325486</tspan></text><text
         xml:space="preserve"
         transform="matrix(2.6172535,0,0,2.5912106,-675.46739,-870.20999)"
         id="text2"
         style="font-style:normal;font-variant:normal;font-weight:normal;font-stretch:normal;font-size:24px;font-family:Futura;-inkscape-font-specification:'Futura, Normal';font-variant-ligatures:normal;font-variant-caps:normal;font-variant-numeric:normal;font-variant-east-asian:normal;white-space:pre;shape-inside:url(#rect3);display:inline;fill:#f8e45c;stroke:#f8e45c;stroke-width:0;stroke-linecap:round;stroke-linejoin:round;stroke-dasharray:none"><tspan
           x="216.8457"
           y="375.42253"
           id="tspan18">info@vgfonsterputs.se</tspan></text><text
         xml:space="preserve"
         transform="matrix(1.7230555,0,0,1.8039572,-287.37679,-351.84993)"
         id="text1-2-0-7"
         style="font-style:normal;font-variant:normal;font-weight:normal;font-stretch:normal;font-size:24px;font-family:Futura;-inkscape-font-specification:'Futura, Normal';font-variant-ligatures:normal;font-variant-caps:normal;font-variant-numeric:normal;font-variant-east-asian:normal;white-space:pre;shape-inside:url(#rect2-5-4-1);display:inline;fill:#f8e45c;stroke:#f8e45c;stroke-width:0;stroke-linecap:round;stroke-linejoin:round;stroke-dasharray:none"><tspan
           x="216.8457"
           y="375.42253"
           id="tspan19">0709325486</tspan></text><text
         xml:space="preserve"
         transform="matrix(1.7230555,0,0,1.8039572,-377.95413,-303.92636)"
         id="text2-2"
         style="font-style:normal;font-variant:normal;font-weight:normal;font-stretch:normal;font-size:24px;font-family:Futura;-inkscape-font-specification:'Futura, Normal';font-variant-ligatures:normal;font-variant-caps:normal;font-variant-numeric:normal;font-variant-east-asian:normal;white-space:pre;shape-inside:url(#rect3-7);display:inline;fill:#f8e45c;stroke:#f8e45c;stroke-width:0;stroke-linecap:round;stroke-linejoin:round;stroke-dasharray:none"><tspan
           x="216.8457"
           y="375.42253"
           id="tspan20">info@vgfonsterputs.se</tspan></text></g></g></svg>
